<?xml version="1.0" encoding="utf-8"?>
<!-- Generator: Adobe Illustrator 27.1.1, SVG Export Plug-In . SVG Version: 6.00 Build 0)  -->
<svg version="1.1" id="Layer_1" xmlns="http://www.w3.org/2000/svg" xmlns:xlink="http://www.w3.org/1999/xlink" x="0px" y="0px"
	 viewBox="0 0 147.8 73.9" style="enable-background:new 0 0 147.8 73.9;" xml:space="preserve">
<style type="text/css">
	.st0{fill:#FFFFFF;}
</style>
<g>
	<path class="st0" d="M18.9,12.2l-3.2,1.9c-0.6-1-1.2-1.7-1.7-2c-0.6-0.4-1.3-0.5-2.2-0.5c-1.1,0-2,0.3-2.7,0.9
		C8.4,13.1,8,13.8,8,14.8c0,1.3,1,2.3,2.9,3.1l2.6,1.1c2.1,0.9,3.7,1.9,4.7,3.2c1,1.2,1.5,2.8,1.5,4.6c0,2.4-0.8,4.4-2.4,6
		c-1.6,1.6-3.6,2.4-6,2.4c-2.3,0-4.1-0.7-5.6-2c-1.5-1.3-2.4-3.2-2.7-5.7l4-0.9C7,28,7.3,29,7.8,29.6c0.8,1.1,2,1.7,3.6,1.7
		c1.2,0,2.3-0.4,3.1-1.2c0.8-0.8,1.2-1.9,1.2-3.1c0-0.5-0.1-1-0.2-1.4c-0.1-0.4-0.4-0.8-0.7-1.2c-0.3-0.4-0.7-0.7-1.2-1
		c-0.5-0.3-1-0.6-1.7-0.9l-2.5-1.1C5.8,19.9,4,17.7,4,14.8c0-2,0.8-3.6,2.3-4.9c1.5-1.3,3.4-2,5.6-2C14.9,7.8,17.3,9.3,18.9,12.2
		L18.9,12.2z"/>
	<path class="st0" d="M32.1,12v22.4h-3.9V12h-6V8.3h16V12C38.1,12,32.1,12,32.1,12z"/>
	<path class="st0" d="M45.6,8.3v15.8c0,2.2,0.4,3.9,1.1,4.9c1.1,1.5,2.6,2.3,4.6,2.3s3.5-0.8,4.7-2.3c0.7-1,1.1-2.7,1.1-4.9V8.3H61
		v16.8c0,2.8-0.9,5-2.6,6.8c-1.9,2-4.3,3-7.1,3c-2.8,0-5.2-1-7.1-3c-1.7-1.8-2.6-4.1-2.6-6.8V8.3C41.6,8.3,45.6,8.3,45.6,8.3z"/>
	<path class="st0" d="M67.3,34.5V8.3h5.5c2.6,0,4.7,0.3,6.2,0.8c1.6,0.5,3.1,1.4,4.5,2.6c2.7,2.5,4.1,5.7,4.1,9.7s-1.4,7.3-4.2,9.8
		c-1.4,1.2-2.9,2.1-4.4,2.6c-1.5,0.5-3.5,0.7-6.2,0.7L67.3,34.5L67.3,34.5z M71.2,30.8H73c1.8,0,3.2-0.2,4.4-0.6
		c1.2-0.4,2.2-1,3.2-1.9c1.9-1.8,2.9-4.1,2.9-6.9s-1-5.2-2.9-7C78.9,12.8,76.4,12,73,12h-1.8V30.8z"/>
	<path class="st0" d="M96.4,8.3v26.2h-3.9V8.3H96.4z"/>
	<path class="st0" d="M101.4,21.3c0-3.7,1.4-6.8,4.1-9.5c2.7-2.6,5.9-4,9.7-4s6.9,1.3,9.6,4c2.7,2.7,4,5.9,4,9.6s-1.3,7-4,9.6
		c-2.7,2.6-6,3.9-9.8,3.9c-3.4,0-6.4-1.2-9.1-3.5C102.9,28.9,101.4,25.5,101.4,21.3L101.4,21.3z M105.4,21.3c0,2.9,1,5.3,2.9,7.1
		c1.9,1.9,4.2,2.8,6.7,2.8c2.7,0,5.1-1,6.9-2.9c1.9-1.9,2.8-4.3,2.8-7s-0.9-5.1-2.8-7c-1.8-1.9-4.1-2.9-6.9-2.9s-5,1-6.9,2.9
		C106.3,16.3,105.4,18.6,105.4,21.3L105.4,21.3z"/>
</g>
<g>
	<path class="st0" d="M96.5,38.1v22.4h14v3.7H92.5V38.1H96.5L96.5,38.1z"/>
	<path class="st0" d="M109.9,38.1l7.2,18.1l7.3-18.1h4.3L117,66.3l-11.5-28.1C105.5,38.1,109.9,38.1,109.9,38.1z"/>
</g>
<rect x="138.4" y="1.2" class="st0" width="3.5" height="70.2"/>
</svg>
