<?xml version="1.0" encoding="UTF-8"?><svg id="mus_og_rotte" xmlns="http://www.w3.org/2000/svg" viewBox="0 0 280 140"><defs><style>.cls-1{fill:#fff;}.cls-2{fill:#ffc9e7;}.cls-3{fill:#c7b299;}.cls-4{fill:#c5bfb7;}</style></defs><path class="cls-4" d="M162.66,104.56c-15.44,32.33-50.45,11.77-18.61,10.61,11.16-.41,10.13-15.15,5.6-34.17-4.54-19.08,16.25-27.03,22.66-17.49,6.89,10.26,9.31,1.37-9.65,41.06Z"/><g><path class="cls-3" d="M143.73,119.62c1.66-2.42,.52-3.6-3.86-3.52-4.38,.08-12.05,.89-11.99,3.81s4.47,7.7,8.02,5.16c4.42-3.16,5.81-2.5,7.83-5.45Z"/><path class="cls-3" d="M129.98,117.95l.57,2.32c.05,.19-.13,.35-.32,.3-1.34-.41-3.23-.41-6.08,.3-.3,.07-.45-.34-.17-.47l5.65-2.62c.14-.07,.32,.01,.35,.17Z"/><path class="cls-3" d="M130.02,120l.57,2.32c.05,.19-.13,.35-.32,.3-1.34-.41-3.23-.41-6.08,.3-.3,.07-.45-.34-.17-.47l5.65-2.62c.14-.07,.32,.01,.35,.17Z"/><path class="cls-3" d="M129.59,121.48l1.92,1.67c.12,.1,.08,.29-.07,.34-1.43,.44-3.11,1.62-5.24,4.18-.16,.19-.45-.01-.33-.22l3.41-5.91c.06-.11,.21-.13,.31-.05Z"/><path class="cls-3" d="M133.06,122.78l1.92,1.67c.12,.1,.08,.29-.07,.34-1.43,.44-3.11,1.62-5.24,4.18-.16,.19-.45-.01-.33-.22l3.41-5.91c.06-.11,.21-.13,.31-.05Z"/></g><path class="cls-4" d="M90.63,96.34c-21.24,22.13-32.6,29.84-16.54,4.79,2.41-3.76,5.15-8.32,17.58-18.82,16.2-13.69,14.69-6.4,23.78-3.76,9.09,2.64-13.43,5.93-24.81,17.79Z"/><path class="cls-4" d="M136.64,30.66c-18.5,0-35.2,4.98-47.08,12.97-1.89-12.23-10.9-17.76-29.25-17.76-20.84,0-36.53,14.71-53.07,32.16-11.02,11.63,24.13,19.84,44.98,19.84,6.99,0,13.53-1.46,19.15-3.99,.79,22.89,29.72,41.29,65.29,41.29s65.31-18.92,65.31-42.25-29.24-42.25-65.31-42.25Z"/><ellipse cx="61.34" cy="42.29" rx="7.93" ry="7.87"/><path class="cls-1" d="M55.48,43.31c-.36,1.08,.38,2.05,0,2.05s-.69-.92-.69-2.05,.31-1.03,.69-1.03,.34,0,0,1.03Z"/><path class="cls-1" d="M55.48,40.58c0,.38-.34,.34-.34,.34-.38,0-.34,.04-.34-.34s.31-.68,.69-.68,0,.31,0,.68Z"/><path class="cls-4" d="M63.02,15.55c2.34-7.79,10.82-16.02,11.34-11.99q.76,5.89,2.82,16.15c1.61,7.97-7.38,13.21-11.31,12.04s-5.2-8.42-2.86-16.2Z"/><path class="cls-2" d="M71.07,24.69l-4.1-.6c-1.62-.24-2.38-2.13-1.36-3.4l2.57-3.22c1.02-1.28,2.84-4.02,3.45-2.51l1.73,6.86c.6,1.51-.67,3.11-2.29,2.87Z"/><path class="cls-4" d="M72.33,15.55c2.34-7.79,10.82-16.02,11.34-11.99q.76,5.89,2.82,16.15c1.61,7.97-7.38,13.21-11.31,12.04s-5.2-8.42-2.86-16.2Z"/><path class="cls-2" d="M80.37,24.69l-4.1-.6c-1.62-.24-2.38-2.13-1.36-3.4l2.57-3.22c1.02-1.28,2.84-4.02,3.45-2.51l1.73,6.86c.6,1.51-.67,3.11-2.29,2.87Z"/><path class="cls-3" d="M7.92,67.61l-1.72-1.71c-1.38,0-1.56-4.58-.55-5.86l2.57-3.22c1.02-1.28,2.84-4.02,3.45-2.51l1.73,6.86c.6,1.51-2.71,8.84-5.47,6.44Z"/><path d="M15.84,56.32s8.96-5.13,11.37-7.53"/><path d="M15.82,56.88s10.34-.23,13.62-1.18"/><path d="M15.59,57.72s9.45,4.16,12.83,4.69"/><path class="cls-4" d="M274.77,41.98c2.86,3.55-21.1-24.37-40.42-6.2-20.04,18.85-34.08,46.26-42.61,23.17-1.22-3.3,17.13-3.08,35.09-24.77,19.92-24.05,45.08,4.25,47.93,7.8Z"/><path class="cls-4" d="M108.9,111.4c-21.24,22.13-38,19.38-16.54,3.08,7.52-5.71,2.76-11.29-8.96-22.56-11.76-11.31-8.05-23.52,1.04-20.89s35.85,28.51,24.47,40.37Z"/><path class="cls-4" d="M181.96,113.11c-15.44,32.33-50.45,11.77-18.61,10.61,11.16-.41,10.13-15.15,5.6-34.17-4.54-19.08,16.25-27.03,22.66-17.49,6.89,10.26,9.31,1.37-9.65,41.06Z"/><g><path class="cls-3" d="M87.18,127.31c1.7-2.39,.59-3.59-3.79-3.59s-12.06,.66-12.06,3.59,4.33,7.78,7.93,5.3c4.48-3.08,5.86-2.39,7.93-5.3Z"/><path class="cls-3" d="M73.46,125.38l.52,2.33c.04,.19-.14,.35-.32,.29-1.33-.43-3.22-.47-6.08,.19-.3,.07-.44-.35-.16-.47l5.69-2.51c.15-.06,.32,.02,.35,.18Z"/><path class="cls-3" d="M73.46,127.44l.52,2.33c.04,.19-.14,.35-.32,.29-1.33-.43-3.22-.47-6.08,.19-.3,.07-.44-.35-.16-.47l5.69-2.51c.15-.06,.32,.02,.35,.18Z"/><path class="cls-3" d="M73.01,128.91l1.89,1.71c.12,.1,.07,.29-.08,.34-1.44,.42-3.14,1.57-5.32,4.08-.16,.19-.45-.02-.33-.23l3.52-5.85c.07-.11,.21-.13,.31-.05Z"/><path class="cls-3" d="M76.45,130.28l1.89,1.71c.12,.1,.07,.29-.08,.34-1.44,.42-3.14,1.57-5.32,4.08-.16,.19-.45-.02-.33-.23l3.52-5.85c.07-.11,.21-.13,.31-.05Z"/></g><g><path class="cls-3" d="M159.9,128.33c1.7-2.39,.59-3.59-3.79-3.59s-12.06,.66-12.06,3.59,4.33,7.78,7.93,5.3c4.48-3.08,5.86-2.39,7.93-5.3Z"/><path class="cls-3" d="M146.18,126.41l.52,2.33c.04,.19-.14,.35-.32,.29-1.33-.43-3.22-.47-6.08,.19-.3,.07-.44-.35-.16-.47l5.69-2.51c.15-.06,.32,.02,.35,.18Z"/><path class="cls-3" d="M146.18,128.46l.52,2.33c.04,.19-.14,.35-.32,.29-1.33-.43-3.22-.47-6.08,.19-.3,.07-.44-.35-.16-.47l5.69-2.51c.15-.06,.32,.02,.35,.18Z"/><path class="cls-3" d="M145.73,129.93l1.89,1.71c.12,.1,.07,.29-.08,.34-1.44,.42-3.14,1.57-5.32,4.08-.16,.19-.45-.02-.33-.23l3.52-5.85c.07-.11,.21-.13,.31-.05Z"/><path class="cls-3" d="M149.17,131.3l1.89,1.71c.12,.1,.07,.29-.08,.34-1.44,.42-3.14,1.57-5.32,4.08-.16,.19-.45-.02-.33-.23l3.52-5.85c.07-.11,.21-.13,.31-.05Z"/></g><g><path class="cls-3" d="M68.57,116.02c1.7-2.39,.59-3.59-3.79-3.59s-12.06,.66-12.06,3.59,4.33,7.78,7.93,5.3c4.48-3.08,5.86-2.39,7.93-5.3Z"/><path class="cls-3" d="M54.85,114.09l.52,2.33c.04,.19-.14,.35-.32,.29-1.33-.43-3.22-.47-6.08,.19-.3,.07-.44-.35-.16-.47l5.69-2.51c.15-.06,.32,.02,.35,.18Z"/><path class="cls-3" d="M54.85,116.15l.52,2.33c.04,.19-.14,.35-.32,.29-1.33-.43-3.22-.47-6.08,.19-.3,.07-.44-.35-.16-.47l5.69-2.51c.15-.06,.32,.02,.35,.18Z"/><path class="cls-3" d="M54.4,117.62l1.89,1.71c.12,.1,.07,.29-.08,.34-1.44,.42-3.14,1.57-5.32,4.08-.16,.19-.45-.02-.33-.23l3.52-5.85c.07-.11,.21-.13,.31-.05Z"/><path class="cls-3" d="M57.84,118.99l1.89,1.71c.12,.1,.07,.29-.08,.34-1.44,.42-3.14,1.57-5.32,4.08-.16,.19-.45-.02-.33-.23l3.52-5.85c.07-.11,.21-.13,.31-.05Z"/></g></svg>